<?xml version="1.0" encoding="UTF-8"?>
<!DOCTYPE svg PUBLIC "-//W3C//DTD SVG 1.1//EN" "http://www.w3.org/Graphics/SVG/1.1/DTD/svg11.dtd">
<!-- Creator: CorelDRAW 2020 (64-Bit) -->
<svg xmlns="http://www.w3.org/2000/svg" xml:space="preserve" width="4.97919in" height="0.672783in" version="1.1" style="shape-rendering:geometricPrecision; text-rendering:geometricPrecision; image-rendering:optimizeQuality; fill-rule:evenodd; clip-rule:evenodd"
viewBox="0 0 123.5 16.69"
 xmlns:xlink="http://www.w3.org/1999/xlink"
 xmlns:xodm="http://www.corel.com/coreldraw/odm/2003">
 <defs>
  <style type="text/css">
   <![CDATA[
    .fil0 {fill:#E5E7FF;fill-rule:nonzero}
   ]]>
  </style>
 </defs>
 <g id="Layer_x0020_1">
  <metadata id="CorelCorpID_0Corel-Layer"/>
  <path class="fil0" d="M11.26 7.09c0,0.43 0,0.86 0,1.29 0,0.43 -0.02,0.85 -0.06,1.29 -0.08,0.92 -0.28,1.79 -0.6,2.61 -0.31,0.82 -0.74,1.54 -1.28,2.16 -0.54,0.62 -1.2,1.11 -1.97,1.47 -0.77,0.36 -1.66,0.54 -2.66,0.54 -0.39,0 -0.79,-0.03 -1.22,-0.1 -0.42,-0.07 -0.84,-0.17 -1.26,-0.3 -0.41,-0.13 -0.81,-0.3 -1.19,-0.49 -0.38,-0.19 -0.72,-0.42 -1.01,-0.68l0.69 -4.57c0.43,0.42 0.92,0.76 1.44,1.02 0.53,0.26 1.11,0.39 1.73,0.39 0.41,0 0.75,-0.06 1.03,-0.17 0.28,-0.12 0.51,-0.28 0.69,-0.49 0.18,-0.21 0.33,-0.45 0.44,-0.72 0.11,-0.28 0.18,-0.57 0.23,-0.89 0.05,-0.31 0.08,-0.63 0.09,-0.96 0.01,-0.33 0.02,-0.66 0.02,-0.98 0,-1.17 -0.06,-2.33 -0.18,-3.49 -0.12,-1.16 -0.22,-2.32 -0.31,-3.48l5.05 -0.33c0.22,2.29 0.33,4.59 0.33,6.89zm14.18 -3.18c0,0.55 -0.02,1.15 -0.08,1.8 -0.05,0.66 -0.14,1.33 -0.26,2.03 -0.12,0.7 -0.27,1.4 -0.46,2.12 -0.19,0.72 -0.42,1.4 -0.7,2.07 -0.28,0.66 -0.61,1.28 -0.98,1.86 -0.37,0.58 -0.8,1.08 -1.28,1.51 -0.48,0.43 -1.02,0.77 -1.62,1.02 -0.6,0.24 -1.26,0.37 -1.99,0.37 -0.85,0 -1.59,-0.14 -2.22,-0.41 -0.63,-0.27 -1.17,-0.65 -1.62,-1.11 -0.45,-0.47 -0.82,-1.01 -1.1,-1.63 -0.29,-0.62 -0.51,-1.28 -0.67,-1.97 -0.16,-0.7 -0.27,-1.41 -0.34,-2.13 -0.06,-0.73 -0.09,-1.42 -0.09,-2.09 0,-1.03 0.05,-2.06 0.15,-3.08 0.1,-1.03 0.25,-2.05 0.44,-3.07l5.16 0.2c-0.2,1.16 -0.37,2.32 -0.51,3.48 -0.14,1.16 -0.21,2.34 -0.21,3.51 0,0.12 0,0.31 0.02,0.56 0.01,0.24 0.03,0.52 0.06,0.82 0.03,0.31 0.07,0.62 0.13,0.94 0.05,0.32 0.13,0.61 0.23,0.88 0.09,0.27 0.21,0.48 0.35,0.65 0.14,0.17 0.3,0.26 0.48,0.26 0.21,0 0.4,-0.1 0.57,-0.31 0.17,-0.2 0.32,-0.47 0.45,-0.81 0.13,-0.34 0.24,-0.73 0.34,-1.17 0.09,-0.44 0.18,-0.9 0.24,-1.38 0.07,-0.48 0.12,-0.96 0.16,-1.44 0.04,-0.48 0.07,-0.92 0.1,-1.33 0.03,-0.41 0.05,-0.78 0.05,-1.09 0.01,-0.32 0.01,-0.55 0.01,-0.71 0,-0.57 -0.01,-1.15 -0.03,-1.72 -0.02,-0.57 -0.05,-1.14 -0.08,-1.7l5.16 0c0.09,1.01 0.13,2.05 0.13,3.09zm17.94 -3.82l-1.02 16.2 -5.03 0.22 0.05 -8.54 -2.28 6.89 -1.94 0 -1.74 -6.15 -0.02 7.15 -5.1 0.15 0.22 -15.25 5.67 -0.22 2.25 7.3 3 -7.75 5.94 0zm13.66 5.48c0,0.71 -0.11,1.34 -0.32,1.9 -0.21,0.55 -0.51,1.03 -0.88,1.44 -0.37,0.41 -0.81,0.76 -1.31,1.05 -0.5,0.29 -1.03,0.52 -1.6,0.7 -0.57,0.18 -1.16,0.31 -1.77,0.4 -0.61,0.09 -1.21,0.13 -1.8,0.14l0 5.14 -5.14 0c0,-1.68 0,-3.36 0.01,-5.03 0.01,-1.67 0.02,-3.36 0.03,-5.06 0.02,-0.9 0.02,-1.79 0.01,-2.69 -0.01,-0.9 0.01,-1.8 0.06,-2.71 0.94,-0.28 1.88,-0.49 2.83,-0.63 0.94,-0.14 1.91,-0.21 2.91,-0.21 0.56,0 1.13,0.05 1.7,0.14 0.57,0.09 1.11,0.24 1.63,0.43 0.52,0.2 1,0.45 1.45,0.75 0.44,0.3 0.83,0.65 1.15,1.07 0.32,0.41 0.58,0.88 0.77,1.4 0.19,0.53 0.28,1.12 0.28,1.77zm-4.9 0.37c0,-0.48 -0.15,-0.85 -0.44,-1.12 -0.29,-0.27 -0.67,-0.4 -1.13,-0.4 -0.15,0 -0.32,0.01 -0.48,0.04 -0.17,0.03 -0.32,0.06 -0.47,0.09l-0.13 3.22c0.1,0.01 0.2,0.02 0.3,0.02 0.09,0 0.19,0 0.3,0 0.26,0 0.52,-0.04 0.76,-0.13 0.25,-0.09 0.47,-0.21 0.66,-0.38 0.19,-0.17 0.34,-0.36 0.46,-0.58 0.12,-0.23 0.17,-0.48 0.17,-0.76zm21.34 9.16c-0.26,-0.2 -0.52,-0.39 -0.77,-0.57 -0.26,-0.18 -0.52,-0.38 -0.77,-0.58 -0.36,0.29 -0.77,0.56 -1.22,0.83 -0.45,0.26 -0.94,0.49 -1.45,0.69 -0.52,0.19 -1.05,0.33 -1.6,0.43 -0.55,0.09 -1.11,0.12 -1.67,0.06 -0.64,-0.04 -1.24,-0.17 -1.79,-0.38 -0.55,-0.21 -1.03,-0.48 -1.43,-0.81 -0.4,-0.33 -0.7,-0.71 -0.9,-1.14 -0.2,-0.43 -0.27,-0.88 -0.2,-1.36 0.06,-0.41 0.19,-0.8 0.4,-1.18 0.21,-0.38 0.46,-0.74 0.76,-1.09 0.31,-0.35 0.64,-0.67 1.02,-0.99 0.38,-0.31 0.76,-0.61 1.15,-0.88 -0.28,-0.27 -0.54,-0.56 -0.79,-0.87 -0.24,-0.31 -0.46,-0.62 -0.63,-0.95 -0.18,-0.33 -0.31,-0.66 -0.39,-1 -0.09,-0.34 -0.1,-0.69 -0.04,-1.04 0.07,-0.47 0.27,-0.92 0.58,-1.34 0.32,-0.42 0.72,-0.78 1.2,-1.08 0.49,-0.3 1.03,-0.53 1.64,-0.69 0.61,-0.16 1.24,-0.21 1.89,-0.16 0.6,0.04 1.16,0.18 1.68,0.43 0.52,0.24 0.96,0.54 1.33,0.9 0.37,0.36 0.64,0.76 0.83,1.2 0.18,0.44 0.24,0.87 0.18,1.31 -0.05,0.35 -0.17,0.69 -0.34,0.99 -0.18,0.31 -0.39,0.6 -0.64,0.88 -0.26,0.27 -0.54,0.54 -0.85,0.79 -0.31,0.25 -0.63,0.5 -0.94,0.75 0.31,0.24 0.6,0.46 0.89,0.68 0.28,0.21 0.57,0.43 0.87,0.64 0.14,-0.19 0.26,-0.39 0.39,-0.6 0.12,-0.21 0.24,-0.42 0.34,-0.64l3.29 0.79c-0.15,0.41 -0.34,0.82 -0.58,1.24 -0.24,0.42 -0.5,0.82 -0.79,1.21 0.32,0.24 0.64,0.46 0.95,0.67 0.31,0.21 0.63,0.44 0.95,0.67l-2.54 2.14zm-5.12 -10.46c0.02,-0.26 -0.02,-0.46 -0.14,-0.63 -0.12,-0.16 -0.29,-0.26 -0.52,-0.28 -0.24,-0.03 -0.46,0.02 -0.63,0.15 -0.17,0.14 -0.27,0.34 -0.3,0.6 -0.01,0.17 -0,0.34 0.03,0.51 0.04,0.17 0.09,0.34 0.16,0.51 0.07,0.16 0.15,0.32 0.24,0.47 0.09,0.15 0.17,0.28 0.25,0.4 0.09,-0.11 0.19,-0.23 0.29,-0.37 0.1,-0.14 0.19,-0.29 0.27,-0.44 0.08,-0.15 0.16,-0.31 0.22,-0.47 0.06,-0.16 0.1,-0.31 0.11,-0.46zm0.35 7.24c-0.22,-0.26 -0.45,-0.53 -0.69,-0.81 -0.23,-0.28 -0.46,-0.55 -0.68,-0.82 -0.1,0.1 -0.2,0.23 -0.32,0.37 -0.12,0.15 -0.23,0.31 -0.34,0.47 -0.11,0.17 -0.2,0.34 -0.28,0.51 -0.08,0.17 -0.13,0.34 -0.14,0.5 -0.02,0.21 0.05,0.41 0.18,0.58 0.14,0.18 0.31,0.28 0.52,0.3 0.15,0.02 0.32,0 0.48,-0.07 0.17,-0.07 0.32,-0.16 0.48,-0.28 0.15,-0.12 0.3,-0.24 0.44,-0.38 0.14,-0.14 0.25,-0.26 0.35,-0.37zm24.93 -6.33c0,0.57 -0.05,1.09 -0.15,1.56 -0.1,0.47 -0.25,0.9 -0.47,1.29 -0.21,0.39 -0.49,0.75 -0.83,1.08 -0.34,0.33 -0.75,0.65 -1.22,0.95l2.63 4.68 -4.96 0.97 -1.7 -4.7 -1.37 0.04 -0.2 4.59 -4.75 0c0.04,-1.68 0.07,-3.35 0.11,-5.01 0.03,-1.66 0.07,-3.33 0.12,-5.01 0.01,-0.85 0.03,-1.68 0.04,-2.52 0.02,-0.83 0.05,-1.67 0.09,-2.52 0.51,-0.19 1.02,-0.35 1.52,-0.47 0.5,-0.12 1,-0.22 1.51,-0.29 0.5,-0.07 1.02,-0.12 1.53,-0.14 0.52,-0.03 1.05,-0.04 1.59,-0.04 0.84,0 1.65,0.12 2.44,0.35 0.78,0.23 1.48,0.58 2.08,1.04 0.6,0.46 1.08,1.04 1.45,1.73 0.37,0.69 0.55,1.5 0.55,2.42zm-4.94 0.35c0,-0.31 -0.05,-0.6 -0.13,-0.85 -0.09,-0.26 -0.21,-0.48 -0.38,-0.67 -0.17,-0.19 -0.37,-0.34 -0.62,-0.44 -0.24,-0.11 -0.53,-0.16 -0.87,-0.16 -0.15,0 -0.29,0.01 -0.43,0.03 -0.14,0.02 -0.27,0.05 -0.41,0.08l-0.18 4.11 0.26 0c0.32,0 0.64,-0.04 0.96,-0.12 0.33,-0.08 0.62,-0.21 0.89,-0.38 0.26,-0.17 0.47,-0.38 0.64,-0.65 0.17,-0.26 0.25,-0.58 0.25,-0.95zm18.9 -1.99c0,0.55 -0.02,1.15 -0.08,1.8 -0.05,0.66 -0.14,1.33 -0.26,2.03 -0.12,0.7 -0.27,1.4 -0.46,2.12 -0.19,0.72 -0.42,1.4 -0.7,2.07 -0.28,0.66 -0.61,1.28 -0.98,1.86 -0.37,0.58 -0.8,1.08 -1.28,1.51 -0.48,0.43 -1.02,0.77 -1.62,1.02 -0.6,0.24 -1.26,0.37 -1.99,0.37 -0.85,0 -1.59,-0.14 -2.22,-0.41 -0.63,-0.27 -1.17,-0.65 -1.62,-1.11 -0.45,-0.47 -0.82,-1.01 -1.1,-1.63 -0.29,-0.62 -0.51,-1.28 -0.67,-1.97 -0.16,-0.7 -0.27,-1.41 -0.34,-2.13 -0.06,-0.73 -0.09,-1.42 -0.09,-2.09 0,-1.03 0.05,-2.06 0.15,-3.08 0.1,-1.03 0.25,-2.05 0.44,-3.07l5.16 0.2c-0.2,1.16 -0.37,2.32 -0.51,3.48 -0.14,1.16 -0.21,2.34 -0.21,3.51 0,0.12 0,0.31 0.02,0.56 0.01,0.24 0.03,0.52 0.06,0.82 0.03,0.31 0.07,0.62 0.13,0.94 0.05,0.32 0.13,0.61 0.23,0.88 0.09,0.27 0.21,0.48 0.35,0.65 0.14,0.17 0.3,0.26 0.48,0.26 0.21,0 0.4,-0.1 0.57,-0.31 0.17,-0.2 0.32,-0.47 0.45,-0.81 0.13,-0.34 0.24,-0.73 0.34,-1.17 0.09,-0.44 0.18,-0.9 0.24,-1.38 0.07,-0.48 0.12,-0.96 0.16,-1.44 0.04,-0.48 0.07,-0.92 0.1,-1.33 0.03,-0.41 0.05,-0.78 0.05,-1.09 0.01,-0.32 0.01,-0.55 0.01,-0.71 0,-0.57 -0.01,-1.15 -0.03,-1.72 -0.02,-0.57 -0.05,-1.14 -0.08,-1.7l5.16 0c0.09,1.01 0.13,2.05 0.13,3.09zm15.89 -3.55l-0.79 14.96 -5.78 0.53 -3.09 -8.01 -0.48 8.17 -4.97 0 0.4 -15.65 5.51 -0.27 3.82 7.95 0.18 -7.5 5.21 -0.18z"/>
 </g>
</svg>
